<svg width="52" height="52" viewBox="0 0 52 52" fill="none" xmlns="http://www.w3.org/2000/svg">
<path fill-rule="evenodd" clip-rule="evenodd" d="M26 2.16666L13.8833 23.371C13.1143 24.3904 12.4711 25.5102 11.9767 26.7074L0 47.6667H52L40.0233 26.7074C39.5289 25.5102 38.8857 24.3904 38.1167 23.371L26 2.16666ZM17.4968 25.7814L15.8919 28.59C15.4234 29.8025 15.1667 31.1209 15.1667 32.5H36.8333C36.8333 31.1209 36.5766 29.8025 36.1081 28.59L34.5032 25.7814C32.5203 23.2738 29.4503 21.6667 26 21.6667C22.5497 21.6667 19.4797 23.2738 17.4968 25.7814ZM35.9341 36.8333H16.0659C17.7353 40.6618 21.5516 43.3333 26 43.3333C30.4485 43.3333 34.2647 40.6618 35.9341 36.8333ZM7.46711 43.3333L11.3674 36.5078C12.0847 39.1372 13.4909 41.4809 15.3805 43.3333H7.46711ZM44.5329 43.3333H36.6195C38.5091 41.4809 39.9153 39.1372 40.6326 36.5078L44.5329 43.3333ZM26 17.3333C27.3761 17.3333 28.709 17.5161 29.976 17.8587L26 10.9008L22.024 17.8587C23.291 17.5161 24.6239 17.3333 26 17.3333Z" fill="#F0622C"/>
</svg>